<svg width="368" height="39" viewBox="0 0 368 39" fill="none" xmlns="http://www.w3.org/2000/svg">
<path d="M0.132063 38V32.912H8.24406V9.488H0.132063V4.4H21.5401V9.488H13.4281V32.912H21.5401V38H0.132063ZM38.6903 38V12.8H43.6343V19.52L42.0023 19.712C42.6743 18.528 43.5703 17.376 44.6903 16.256C45.8103 15.104 47.1383 14.16 48.6743 13.424C50.2423 12.656 51.9543 12.272 53.8103 12.272C56.3383 12.272 58.4343 12.736 60.0983 13.664C61.7943 14.592 63.0583 15.872 63.8903 17.504C64.7223 19.136 65.1383 20.976 65.1383 23.024V38H60.1943V23.744C60.1943 22.336 59.8583 21.12 59.1863 20.096C58.5143 19.04 57.6023 18.24 56.4503 17.696C55.2983 17.12 54.0023 16.848 52.5623 16.88C51.2823 16.88 50.0983 17.104 49.0103 17.552C47.9223 18 46.9783 18.592 46.1783 19.328C45.3783 20.064 44.7543 20.864 44.3063 21.728C43.8583 22.592 43.6343 23.44 43.6343 24.272V38H41.1863C40.4503 38 39.8743 38 39.4583 38C39.0423 38 38.7863 38 38.6903 38ZM92.6742 38.48C89.8902 38.48 87.3462 38.112 85.0422 37.376C82.7382 36.64 80.8022 35.424 79.2342 33.728L82.5942 30.656C83.8102 31.84 85.2342 32.752 86.8662 33.392C88.4982 34.032 90.3062 34.352 92.2902 34.352C93.0582 34.352 93.8582 34.304 94.6902 34.208C95.5222 34.112 96.3062 33.952 97.0422 33.728C97.7782 33.504 98.3702 33.184 98.8182 32.768C99.2662 32.352 99.4902 31.824 99.4902 31.184C99.4902 30.16 98.7062 29.392 97.1382 28.88C96.3382 28.656 95.4422 28.432 94.4502 28.208C93.4582 27.984 92.3862 27.776 91.2342 27.584C89.3142 27.2 87.5702 26.8 86.0022 26.384C84.4342 25.936 83.1382 25.328 82.1142 24.56C81.3782 23.952 80.8022 23.248 80.3862 22.448C80.0022 21.648 79.8102 20.688 79.8102 19.568C79.8102 18.448 80.1142 17.44 80.7222 16.544C81.3622 15.648 82.2262 14.88 83.3142 14.24C84.4022 13.6 85.6662 13.12 87.1062 12.8C88.5782 12.448 90.1622 12.272 91.8582 12.272C93.2982 12.272 94.7862 12.416 96.3222 12.704C97.8902 12.992 99.3622 13.44 100.738 14.048C102.146 14.624 103.33 15.376 104.29 16.304L101.65 19.664C100.818 19.024 99.8422 18.464 98.7222 17.984C97.6022 17.472 96.4502 17.072 95.2662 16.784C94.1142 16.496 92.9942 16.352 91.9062 16.352C91.1382 16.352 90.3382 16.4 89.5062 16.496C88.6742 16.592 87.8902 16.752 87.1542 16.976C86.4502 17.2 85.8742 17.52 85.4262 17.936C84.9782 18.32 84.7542 18.8 84.7542 19.376C84.7542 19.76 84.8662 20.112 85.0902 20.432C85.3462 20.752 85.6662 21.04 86.0502 21.296C86.7542 21.744 87.6982 22.112 88.8822 22.4C90.0662 22.688 91.3782 22.96 92.8182 23.216C94.5462 23.504 96.1942 23.872 97.7622 24.32C99.3302 24.736 100.658 25.28 101.746 25.952C102.578 26.496 103.234 27.136 103.714 27.872C104.194 28.576 104.434 29.424 104.434 30.416C104.434 32.144 103.906 33.616 102.85 34.832C101.794 36.016 100.37 36.928 98.5782 37.568C96.8182 38.176 94.8502 38.48 92.6742 38.48ZM122.069 38V5.216H127.013V38H122.069ZM114.533 17.6V12.8H135.941V17.6H114.533ZM160.848 38.48C158 38.48 155.504 37.92 153.36 36.8C151.216 35.68 149.552 34.128 148.368 32.144C147.216 30.16 146.64 27.904 146.64 25.376C146.64 22.816 147.248 20.56 148.464 18.608C149.712 16.624 151.44 15.072 153.648 13.952C155.856 12.832 158.368 12.272 161.184 12.272C162.944 12.272 164.56 12.48 166.032 12.896C167.536 13.312 168.848 13.872 169.968 14.576C171.088 15.28 171.952 16.048 172.56 16.88C173.2 17.68 173.536 18.496 173.568 19.328H172.176V12.8H177.12V38H172.176V31.232L173.184 31.472C173.152 32.24 172.784 33.04 172.08 33.872C171.408 34.672 170.496 35.424 169.344 36.128C168.224 36.832 166.928 37.408 165.456 37.856C163.984 38.272 162.448 38.48 160.848 38.48ZM162 33.92C164.048 33.92 165.856 33.552 167.424 32.816C168.992 32.048 170.208 31.024 171.072 29.744C171.936 28.432 172.368 26.976 172.368 25.376C172.368 23.776 171.936 22.336 171.072 21.056C170.208 19.776 168.992 18.768 167.424 18.032C165.856 17.264 164.048 16.88 162 16.88C159.984 16.88 158.192 17.264 156.624 18.032C155.088 18.768 153.872 19.776 152.976 21.056C152.112 22.336 151.68 23.776 151.68 25.376C151.68 26.976 152.112 28.432 152.976 29.744C153.872 31.024 155.088 32.048 156.624 32.816C158.192 33.552 159.984 33.92 162 33.92Z" fill="black"/>
<path d="M197.283 29.264L197.235 23.408L220.563 4.4H228.051L197.283 29.264ZM193.443 38V4.4H198.627V38H193.443ZM220.755 38L206.403 20L209.715 16.064L227.571 38H220.755ZM242.928 38V12.8H247.872V38H242.928ZM245.328 6.848C244.272 6.848 243.456 6.576 242.88 6.032C242.304 5.488 242.016 4.72 242.016 3.728C242.016 2.8 242.304 2.048 242.88 1.472C243.488 0.895998 244.304 0.607998 245.328 0.607998C246.384 0.607998 247.2 0.879998 247.776 1.424C248.352 1.968 248.64 2.736 248.64 3.728C248.64 4.656 248.336 5.408 247.728 5.984C247.152 6.56 246.352 6.848 245.328 6.848ZM277.312 38.48C274.496 38.48 271.952 37.904 269.68 36.752C267.44 35.6 265.664 34.032 264.352 32.048C263.04 30.064 262.384 27.84 262.384 25.376C262.384 22.88 263.04 20.656 264.352 18.704C265.664 16.72 267.44 15.152 269.68 14C271.952 12.848 274.496 12.272 277.312 12.272C280.128 12.272 282.72 12.72 285.088 13.616C287.488 14.48 289.36 15.68 290.704 17.216L287.92 21.104C287.12 20.304 286.128 19.568 284.944 18.896C283.792 18.224 282.56 17.696 281.248 17.312C279.968 16.928 278.688 16.736 277.408 16.736C275.456 16.736 273.728 17.12 272.224 17.888C270.752 18.624 269.584 19.648 268.72 20.96C267.888 22.24 267.472 23.712 267.472 25.376C267.472 27.04 267.92 28.528 268.816 29.84C269.712 31.12 270.912 32.144 272.416 32.912C273.952 33.648 275.632 34.016 277.456 34.016C279.024 34.016 280.432 33.84 281.68 33.488C282.96 33.136 284.112 32.688 285.136 32.144C286.192 31.6 287.152 31.04 288.016 30.464L290.704 34.208C289.072 35.36 287.136 36.368 284.896 37.232C282.656 38.064 280.128 38.48 277.312 38.48ZM308.922 31.28L309.306 25.904L325.914 12.8H332.778L308.922 31.28ZM305.034 38V2.48H309.594V38H305.034ZM326.634 38L314.25 24.608L317.562 21.392L332.97 38H326.634ZM356.065 38.48C353.281 38.48 350.737 38.112 348.433 37.376C346.129 36.64 344.193 35.424 342.625 33.728L345.985 30.656C347.201 31.84 348.625 32.752 350.257 33.392C351.889 34.032 353.697 34.352 355.681 34.352C356.449 34.352 357.249 34.304 358.081 34.208C358.913 34.112 359.697 33.952 360.433 33.728C361.169 33.504 361.761 33.184 362.209 32.768C362.657 32.352 362.881 31.824 362.881 31.184C362.881 30.16 362.097 29.392 360.529 28.88C359.729 28.656 358.833 28.432 357.841 28.208C356.849 27.984 355.777 27.776 354.625 27.584C352.705 27.2 350.961 26.8 349.393 26.384C347.825 25.936 346.529 25.328 345.505 24.56C344.769 23.952 344.193 23.248 343.777 22.448C343.393 21.648 343.201 20.688 343.201 19.568C343.201 18.448 343.505 17.44 344.113 16.544C344.753 15.648 345.617 14.88 346.705 14.24C347.793 13.6 349.057 13.12 350.497 12.8C351.969 12.448 353.553 12.272 355.249 12.272C356.689 12.272 358.177 12.416 359.713 12.704C361.281 12.992 362.753 13.44 364.129 14.048C365.537 14.624 366.721 15.376 367.681 16.304L365.041 19.664C364.209 19.024 363.233 18.464 362.113 17.984C360.993 17.472 359.841 17.072 358.657 16.784C357.505 16.496 356.385 16.352 355.297 16.352C354.529 16.352 353.729 16.4 352.897 16.496C352.065 16.592 351.281 16.752 350.545 16.976C349.841 17.2 349.265 17.52 348.817 17.936C348.369 18.32 348.145 18.8 348.145 19.376C348.145 19.76 348.257 20.112 348.481 20.432C348.737 20.752 349.057 21.04 349.441 21.296C350.145 21.744 351.089 22.112 352.273 22.4C353.457 22.688 354.769 22.96 356.209 23.216C357.937 23.504 359.585 23.872 361.153 24.32C362.721 24.736 364.049 25.28 365.137 25.952C365.969 26.496 366.625 27.136 367.105 27.872C367.585 28.576 367.825 29.424 367.825 30.416C367.825 32.144 367.297 33.616 366.241 34.832C365.185 36.016 363.761 36.928 361.969 37.568C360.209 38.176 358.241 38.48 356.065 38.48Z" fill="#FF7777"/>
</svg>
