<svg xmlns="http://www.w3.org/2000/svg" class="logo" viewBox="0 0 147 147" fill="none">
    <path d="M34.8459 46.6679C36.5965 46.6679 38.0156 44.9547 38.0156 42.8413C38.0156 40.7279 36.5965 39.0147 34.8459 39.0147C33.0953 39.0147 31.6762 40.7279 31.6762 42.8413C31.6762 44.9547 33.0953 46.6679 34.8459 46.6679Z" fill="black"/>
    <path d="M138.961 103.045C136.317 98.8851 132.307 93.3519 129.169 92.4837C127.437 91.1974 124.762 90.1638 121.895 89.0866L120.434 88.5307C120.473 87.3754 120.117 86.5394 119.327 85.9858C114.495 82.6117 109.593 77.6229 104.884 72.0116C105.011 71.6809 105.084 71.3226 105.084 70.9367C105.084 69.4874 104.108 68.3137 102.907 68.3137C102.56 68.3137 102.243 68.3435 101.901 68.3481C100.527 66.6053 99.1842 64.8388 97.8721 63.0492C98.0972 62.6381 98.2603 62.1718 98.2603 61.6435C98.2603 60.1919 97.2841 59.0182 96.0851 59.0182C95.9726 59.0182 95.5798 59.0205 94.9803 59.0435C93.4494 56.8703 91.9433 54.6797 90.4624 52.4721C90.5566 52.1804 90.6186 51.8703 90.6186 51.5419C90.6186 50.0903 89.6447 48.9142 88.4457 48.9142C88.3286 48.9142 88.2229 48.9234 88.1104 48.9234C86.7152 46.7934 85.3317 44.6558 83.9599 42.5106C84.0288 42.251 84.0955 41.9846 84.0955 41.6998C84.0955 40.2504 83.117 39.0767 81.9203 39.0767L81.7687 39.0813C76.1735 30.344 75.156 29.0256 73.6056 29.0256C72.5812 29.0256 71.6303 29.0945 70.7047 29.1887C70.3556 28.5616 69.9995 27.953 69.6527 27.3167C68.5709 25.3368 66.2602 22.9688 61.4161 22.9688C54.0776 22.9688 44.0081 28.4192 38.0982 32.0598C32.4962 29.6825 27.7324 28.4514 23.9816 28.4514C20.1528 28.4514 18.3704 29.6986 17.6239 30.4543C17.578 30.4933 17.5228 30.5163 17.4792 30.5622C13.3494 35.0733 10.6919 43.5074 8.98535 51.8611C6.26585 60.5135 5.96955 67.558 6.01319 70.8058C5.84473 71.0026 5.69981 71.2184 5.58138 71.4489C3.99424 74.7449 4.3181 87.5362 6.55066 90.3131C12.2768 97.4633 18.1361 102.098 24.34 107.007C31.3569 112.558 38.6104 118.298 47.1364 128.531C54.4818 137.351 69.7744 142.406 89.0981 142.406C114.841 142.406 142.406 133.267 142.406 119.667C142.406 104.696 140.792 103.116 138.961 103.045ZM136.432 105.355C131.455 113.075 108.346 117.237 88.0001 117.237C81.2083 117.237 75.2134 116.769 71.1135 115.914C65.4356 114.731 60.0862 112.774 55.0699 110.353C59.7807 104.189 68.3067 103.231 76.9935 103.231C80.3676 103.231 83.8497 103.382 87.5408 103.548C91.3099 103.713 95.2077 103.883 99.0619 103.883C108.364 103.883 120.076 102.96 128.839 95.9106C130.407 96.8569 133.524 100.746 136.432 105.355ZM109.113 84.2999C110.443 85.6872 111.697 87.0033 112.774 88.177C114.247 89.7848 117.389 90.9677 120.71 92.2195C122.428 92.8673 124.158 93.531 125.524 94.204C117.798 99.7349 107.882 100.537 99.0619 100.537C95.4627 100.537 91.7969 100.38 88.2275 100.222C88.2206 96.5629 87.6878 92.842 86.7851 90.5635C91.9921 87.5041 99.4776 84.5572 109.113 84.2999ZM99.0941 73.6883C100.846 75.6008 102.617 77.4958 104.407 79.3731C95.7153 80.3539 88.9005 83.2916 84.0403 86.289C82.3371 83.8877 80.6206 81.4958 78.8907 79.1136C83.4914 76.5686 90.0719 74.2189 99.0941 73.6883ZM94.7461 68.8282C86.4383 69.8595 80.2712 72.3539 75.8589 74.9976C74.4716 73.1187 73.1095 71.2996 71.7819 69.5471C78.4934 66.3246 86.1948 65.0659 91.0986 64.5789C92.3389 66.0558 93.5494 67.4592 94.7461 68.8282ZM68.6421 65.4586C66.9828 63.3204 65.3021 61.1987 63.6004 59.094C68.4377 57.0038 74.9562 55.0354 83.0527 54.3992C84.4033 56.207 85.7824 57.9934 87.1893 59.7578C81.7986 60.5364 74.8161 62.1488 68.6421 65.4586ZM87.5798 54.1925C88.5927 55.7084 89.6378 57.2473 90.7173 58.8046C89.5001 57.288 88.3033 55.7551 87.1273 54.2063C87.2789 54.2017 87.4259 54.1925 87.5798 54.1925ZM81.1532 44.3481C82.1087 45.8387 83.1147 47.4006 84.1804 49.0429C83.9002 49.0567 83.6338 49.0888 83.3559 49.1072C82.2388 47.5447 81.1415 45.9682 80.0644 44.3779C80.4319 44.3687 80.7834 44.3527 81.1532 44.3481ZM60.1942 54.9826C58.6048 53.0923 56.9869 51.2263 55.3409 49.3851C60.3021 47.2375 67.1974 45.1979 76.1437 44.5525C77.26 46.2384 78.3785 47.8807 79.4948 49.4701C71.3524 50.4807 64.9074 52.734 60.1942 54.9826ZM73.1394 32.3836C73.9525 33.2197 75.7923 35.9989 77.8526 39.1916C77.4667 39.21 77.0785 39.226 76.6995 39.249C75.2691 36.9994 73.8815 34.7228 72.5376 32.4204C72.742 32.4135 72.9281 32.3882 73.1394 32.3836ZM61.4161 26.3176C64.0116 26.3176 65.7411 27.1697 66.7012 28.9222C68.6737 32.5288 70.7502 36.0774 72.9281 39.5637C63.6119 40.5766 56.5881 43.0434 51.6521 45.4506C46.8195 40.4549 42.7356 37.0072 39.435 35.1881C44.9705 31.7428 54.7391 26.3176 61.4161 26.3176ZM20.1459 32.6616C20.4996 32.4089 21.5906 31.7979 23.9793 31.7979C25.8306 31.7979 28.7936 32.1999 33.137 33.7204C27.3075 34.3773 24.0827 38.9527 21.4826 42.7288C19.8105 45.1497 18.2395 47.4351 16.7695 47.5132C15.8691 46.3647 17.4769 39.3432 20.1459 32.6616ZM13.3586 47.7314C13.478 48.3745 13.6802 48.9349 13.9788 49.3805C14.5943 50.2878 15.5498 50.7816 16.6707 50.7816C20.0103 50.7816 22.0706 47.7911 24.2527 44.6214C26.8619 40.8407 29.5562 36.9315 34.545 36.9315C37.3334 36.9315 42.1568 40.5054 48.5444 47.0813C46.9481 48.0047 45.7193 48.8476 44.7913 49.5344C44.5343 49.448 44.2655 49.4015 43.9943 49.3966C42.2418 49.3966 40.8223 51.1101 40.8223 53.2232C40.8223 55.3363 42.2418 57.0498 43.9943 57.0498C45.5286 57.0498 46.808 55.7337 47.102 53.9835C48.6961 52.828 50.3762 51.796 52.1276 50.8965C53.8138 52.7629 55.467 54.6589 57.0865 56.5835C55.6132 57.4027 54.1869 58.3037 52.8143 59.2823C52.5422 59.1847 52.2558 59.1327 51.9668 59.1285C50.2166 59.1285 48.7971 60.8396 48.7971 62.955C48.7971 65.0705 50.2166 66.7816 51.9668 66.7816C53.4758 66.7816 54.7322 65.5046 55.0538 63.798C56.7598 62.5978 58.5499 61.5216 60.4101 60.5778C62.1167 62.6656 63.8853 64.8729 65.7067 67.2112C63.8288 68.4508 62.1008 69.9037 60.5571 71.5408C60.4721 71.5316 60.3917 71.5109 60.3044 71.5109C58.5473 71.5109 57.1301 73.2244 57.1301 75.3375C57.1301 77.4483 58.5473 79.1641 60.3044 79.1641C62.0202 79.1641 63.4144 77.5058 63.4603 75.4432C65.0275 73.7866 66.8133 72.3516 68.7684 71.1779C70.158 73.0016 71.5798 74.8873 73.0337 76.8397C71.3547 78.0487 69.7997 79.4213 68.3917 80.9373C68.3205 80.9327 68.2516 80.912 68.1804 80.912C66.4325 80.912 65.0107 82.6278 65.0107 84.7409C65.0107 86.8517 66.4325 88.5675 68.1804 88.5675C69.9123 88.5675 71.3088 86.8908 71.3432 84.8121C72.7531 83.3376 74.317 82.0186 76.0082 80.8776C77.7707 83.2929 79.5171 85.72 81.2473 88.1587C79.674 89.2826 78.1805 90.5144 76.7776 91.8451C76.6306 91.8199 76.4859 91.7923 76.3366 91.7923C74.5818 91.7923 73.1646 93.5081 73.1646 95.6189C73.1646 97.732 74.5818 99.4455 76.3366 99.4455C77.9766 99.4455 79.3157 97.9273 79.4718 95.9887C80.8737 94.6779 82.3699 93.4719 83.9485 92.3803C84.6168 94.2729 84.9017 97.2313 84.8879 100.084C82.2596 99.9625 79.6292 99.8943 76.9981 99.8796C67.1307 99.8796 57.4218 101.067 52.015 108.812C37.6458 101.125 26.3727 89.7343 18.9882 81.3829C19.1536 73.9318 17.3115 69.276 15.4671 64.8224C13.9282 61.0969 12.4766 57.5689 12.3204 52.3917C12.6305 50.8275 12.9727 49.2611 13.3586 47.7314ZM12.3549 66.0972C13.7628 69.4988 15.0904 72.8155 15.52 77.3794C14.9113 76.6605 14.3417 75.9829 13.818 75.3582C11.4958 72.5973 10.2693 71.1641 9.37352 70.4566C9.38469 67.1461 9.69062 63.8432 10.2877 60.587C10.8895 62.56 11.6291 64.3447 12.3549 66.0972ZM89.0981 139.057C70.7759 139.057 56.4273 134.441 49.7227 126.395C40.9739 115.891 33.2472 109.779 26.4301 104.384C20.3801 99.5994 14.6678 95.0768 9.17599 88.2276C8.05511 86.7438 7.59804 77.593 8.25954 74.0375C9.05425 74.9126 10.1591 76.2241 11.2386 77.5103C20.1849 88.1587 41.137 113.089 70.4291 119.192C74.7449 120.09 80.9878 120.584 88.0001 120.584C103.738 120.584 130.451 117.908 138.474 108.293C138.761 110.195 139.044 113.606 139.044 119.663C139.044 129.815 115.236 139.057 89.0981 139.057Z" fill="black"/>
</svg>